<svg xmlns="http://www.w3.org/2000/svg" viewBox="0 0 512 512">
<defs>
  <linearGradient id="g" x1="0" x2="1" y1="0" y2="1">
    <stop stop-color="#ffb7d2"/>
    <stop offset="1" stop-color="#cdbfff"/>
  </linearGradient>
</defs>
<rect width="512" height="512" rx="120" fill="url(#g)"/>
<circle cx="256" cy="256" r="154" fill="#fff" opacity=".85"/>
<path d="M175 190h162a24 24 0 0 1 24 24v84a24 24 0 0 1-24 24H175a24 24 0 0 1-24-24v-84a24 24 0 0 1 24-24z" fill="#ff8fbd"/>
<circle cx="205" cy="256" r="28" fill="#fff"/>
<circle cx="256" cy="256" r="28" fill="#fff"/>
<circle cx="307" cy="256" r="28" fill="#fff"/>
<path d="M184 160c23-34 48-51 72-51s49 17 72 51" fill="none" stroke="#fff" stroke-width="18" stroke-linecap="round"/>
<text x="256" y="390" text-anchor="middle" font-family="Arial,sans-serif" font-size="58" font-weight="900" fill="#65505f">PON!</text>
</svg>